HIERARCHY
ROOT ui
{
	 OFFSET 0 0 0
	 CHANNELS 3 XPosition YPosition Z Position
	 EndSite
	 {
	 OFFSET 0 -1 0
	 }
}
ROOT li
{
	 OFFSET 0 0 0
	 CHANNELS 3 XPosition YPosition Z Position
	 EndSite
	 {
	 OFFSET 0 -1 0
	 }
}
ROOT ul
{
	 OFFSET 0 0 0
	 CHANNELS 3 XPosition YPosition Z Position
	 EndSite
	 {
	 OFFSET 0 -1 0
	 }
}
ROOT ll
{
	 OFFSET 0 0 0
	 CHANNELS 3 XPosition YPosition Z Position
	 EndSite
	 {
	 OFFSET 0 -1 0
	 }
}
ROOT tt
{
	 OFFSET 0 0 0
	 CHANNELS 3 XPosition YPosition Z Position
	 EndSite
	 {
	 OFFSET 0 -1 0
	 }
}
ROOT tb
{
	 OFFSET 0 0 0
	 CHANNELS 3 XPosition YPosition Z Position
	 EndSite
	 {
	 OFFSET 0 -1 0
	 }
}
ROOT td
{
	 OFFSET 0 0 0
	 CHANNELS 3 XPosition YPosition Z Position
	 EndSite
	 {
	 OFFSET 0 -1 0
	 }
}
ROOT v
{
	 OFFSET 0 0 0
	 CHANNELS 3 XPosition YPosition Z Position
	 EndSite
	 {
	 OFFSET 0 -1 0
	 }
}
ROOT bn
{
	 OFFSET 0 0 0
	 CHANNELS 3 XPosition YPosition Z Position
	 EndSite
	 {
	 OFFSET 0 -1 0
	 }
}
MOTION
Frames: 16
Frame Time: 0.002
-0.001850154995918274	-5.328530073165894E-4	0		0.4853686828613281	-2.377283447265625	0		-1.102494873046875	0.0755866928100586	0		-0.6895371704101563	-2.598670654296875	0		1.5426324462890626	-0.6130868530273438	0		3.1212197265625	0.11293821716308594	0		4.67789990234375	0.22428768920898437	0		5.60544287109375	0.1407216033935547	0		-0.14979324340820313	5.95888525390625	0		
0.04715259552001953	-0.010557636260986328	0		0.5165117797851563	-2.390885986328125	0		-1.1052996826171875	0.07554472351074219	0		-0.7270241088867188	-2.594943603515625	0		1.498942138671875	-0.6100275268554688	0		3.13751171875	0.11788913726806641	0		4.6750810546875	0.22478086853027343	0		5.60346044921875	0.1417119903564453	0		-0.1531427764892578	5.958931640625	0		
0.017564603805541992	-0.001938918948173523	0		0.46413479614257813	-2.382743896484375	0		-1.095279052734375	0.06522542572021485	0		-0.7274968872070312	-2.59300048828125	0		1.5402711181640625	-0.6087461547851563	0		3.139592529296875	0.111139892578125	0		4.67229833984375	0.2252806396484375	0		5.595041015625	0.13785279846191406	0		-0.15549285888671874	5.95795068359375	0		
0.042938697814941404	5.301550030708313E-4	0		0.5156077270507813	-2.38676904296875	0		-1.093885498046875	0.0690843734741211	0		-0.748926025390625	-2.592629150390625	0		1.5028411865234375	-0.59882763671875	0		3.1271708984375	0.1246934814453125	0		4.6816748046875	0.2295278015136719	0		5.60668994140625	0.1381719207763672	0		-0.2769289855957031	5.95042919921875	0		
-0.009597958564758301	0.002606040954589844	0		0.487334228515625	-2.383143310546875	0		-1.10743701171875	0.070248291015625	0		-0.6834266357421875	-2.602058837890625	0		1.49726904296875	-0.601580810546875	0		3.11932421875	0.11213816833496094	0		4.67908544921875	0.2300145263671875	0		5.59136669921875	0.1450209197998047	0		-0.2952863159179687	5.939755859375	0		
0.08485403442382812	-0.004348690032958984	0		0.49037680053710936	-2.37116748046875	0		-1.1098682861328124	0.07018042755126953	0		-0.7323937377929688	-2.591125	0		1.494900390625	-0.6014058227539063	0		3.15910595703125	0.1226002426147461	0		4.66768212890625	0.23267030334472658	0		5.59606787109375	0.14565200805664064	0		-0.16486187744140626	5.9580302734375	0		
0.007630064964294434	-0.0017795250415802001	0		0.47121328735351564	-2.37674462890625	0		-1.11803173828125	0.07523048400878907	0		-0.703567626953125	-2.598793701171875	0		1.527483154296875	-0.6119529418945312	0		3.104906494140625	0.12697913360595703	0		4.665400390625	0.233125	0		5.59446728515625	0.14657310485839845	0		-0.16862385559082033	5.96006494140625	0		
0.030541126251220702	-0.0022627110481262206	0		0.453221923828125	-2.3823515625	0		-1.107328369140625	0.06489334869384765	0		-0.7603887939453124	-2.59671337890625	0		1.4906641845703126	-0.601082763671875	0		3.117787841796875	0.12597489929199218	0		4.6640107421875	0.21954693603515624	0		5.59299267578125	0.14746449279785157	0		-0.17125799560546875	5.95907470703125	0		
0.009783828735351562	0.0051440238952636715	0		0.4825997314453125	-2.378920166015625	0		-1.105156982421875	0.06873637390136719	0		-0.7220145263671875	-2.594569091796875	0		1.49775048828125	-0.6041146240234375	0		3.1178125	0.12322576904296875	0		4.66035205078125	0.23300942993164062	0		5.5987353515625	0.14278764343261718	0		-0.1707588348388672	5.9550205078125	0		
0.029974376678466797	7.2011399269104E-4	0		0.4702191162109375	-2.37164111328125	0		-1.1196822509765625	0.07892182159423829	0		-0.7713291625976563	-2.584645263671875	0		1.4901995849609375	-0.597850830078125	0		3.132236328125	0.13118150329589845	0		4.65962890625	0.234398681640625	0		5.5933818359375	0.1611277618408203	0		-0.3073388671875	5.93873046875	0		
-0.02154610824584961	0.0027430410385131834	0		0.49071603393554686	-2.379027099609375	0		-1.12531884765625	0.07492843627929688	0		-0.740796875	-2.591333251953125	0		1.485637939453125	-0.600652587890625	0		3.087462890625	0.1213181381225586	0		4.6628974609375	0.226694580078125	0		5.589333984375	0.14996260070800782	0		-0.17793612670898437	5.9590859375	0		
-0.0010166209936141968	-0.0016830840110778809	0		0.46356198120117187	-2.376453857421875	0		-1.120811767578125	0.0697360610961914	0		-0.7419794921875	-2.591376220703125	0		1.519092041015625	-0.6112194213867187	0		3.1160615234375	0.12097500610351562	0		4.65353515625	0.22923490905761718	0		5.58835546875	0.15073634338378905	0		-0.1797893829345703	5.9590869140625	0		
-0.002246068000793457	-0.001669579029083252	0		0.49828607177734374	-2.388120361328125	0		-1.115147705078125	0.06452618408203124	0		-0.7321942749023438	-2.600636474609375	0		1.4831151123046875	-0.6003950805664062	0		3.11968212890625	0.11412643432617188	0		4.6602470703125	0.22744204711914062	0		5.5840224609375	0.16376220703125	0		-0.1814705047607422	5.9590869140625	0		
-2.4771399796009064E-4	0.002282232999801636	0		0.4485882568359375	-2.3771005859375	0		-1.1121544189453125	0.06837680053710937	0		-0.7300059814453125	-2.596738037109375	0		1.4851373291015626	-0.5973345336914062	0		3.1228505859375	0.1272847671508789	0		4.66326806640625	0.23371435546875	0		5.5832607421875	0.16447947692871093	0		-0.3153974914550781	5.9397119140625	0		
-0.0011862070560455323	0.0022934739589691162	0		0.4888289794921875	-2.376869140625	0		-1.1240755615234375	0.06952726745605468	0		-0.7436204833984374	-2.589522216796875	0		1.4842410888671875	-0.59721875	0		3.106748046875	0.11981421661376954	0		4.6533544921875	0.23623153686523438	0		5.58606787109375	0.15289022827148438	0		-0.1843443603515625	5.95908447265625	0		
-0.0019888089895248413	0.0023034589290618895	0		0.4622520751953125	-2.373313720703125	0		-1.130782958984375	0.07457839965820312	0		-0.734466064453125	-2.600757568359375	0		1.5182947998046874	-0.6067964477539063	0		3.139187255859375	0.13238180541992187	0		4.6525361328125	0.23655740356445312	0		5.58550390625	0.1535542449951172	0		-0.1855512237548828	5.95908203125	0		
